<svg xmlns="http://www.w3.org/2000/svg" width="760" height="240" viewBox="0 0 760 240" font-family="sans-serif">
  <style>
    .field { stroke:#222; stroke-width:1.5; }
    .lbl { font-size:13px; fill:#111; text-anchor:middle; font-weight:bold; }
    .sz { font-size:11px; fill:#444; text-anchor:middle; }
    .note { font-size:12px; fill:#333; }
    .pre { fill:#dfe7f3; }
    .addr { fill:#cfe9d6; }
    .et { fill:#f6e2c0; }
    .pl { fill:#f2cdcd; }
    .fcs { fill:#d9d2ec; }
  </style>
  <text x="380" y="22" font-size="16" font-weight="bold" text-anchor="middle">Ethernet II Frame (byte layout)</text>

  <!-- preamble + SFD : shown separate from the frame proper -->
  <rect class="field pre" x="10"  y="50" width="90"  height="60"/>
  <rect class="field pre" x="100" y="50" width="45"  height="60"/>

  <!-- the frame proper -->
  <rect class="field addr" x="145" y="50" width="90"  height="60"/>
  <rect class="field addr" x="235" y="50" width="90"  height="60"/>
  <rect class="field et"   x="325" y="50" width="70"  height="60"/>
  <rect class="field pl"   x="395" y="50" width="250" height="60"/>
  <rect class="field fcs"  x="645" y="50" width="105" height="60"/>

  <!-- labels -->
  <text class="lbl" x="55"  y="78">Preamble</text>
  <text class="sz"  x="55"  y="96">7 bytes</text>
  <text class="lbl" x="122" y="78">SFD</text>
  <text class="sz"  x="122" y="96">1 byte</text>
  <text class="lbl" x="190" y="78">Dest MAC</text>
  <text class="sz"  x="190" y="96">6 bytes</text>
  <text class="lbl" x="280" y="78">Src MAC</text>
  <text class="sz"  x="280" y="96">6 bytes</text>
  <text class="lbl" x="360" y="78">EtherType</text>
  <text class="sz"  x="360" y="96">2 bytes</text>
  <text class="lbl" x="520" y="78">Payload</text>
  <text class="sz"  x="520" y="96">46-1500 bytes</text>
  <text class="lbl" x="697" y="78">FCS</text>
  <text class="sz"  x="697" y="96">4 bytes (CRC-32)</text>

  <!-- brace marking the bytes covered by the FCS / "the frame" -->
  <line x1="145" y1="120" x2="750" y2="120" stroke="#222" stroke-width="1"/>
  <line x1="145" y1="120" x2="145" y2="128" stroke="#222" stroke-width="1"/>
  <line x1="750" y1="120" x2="750" y2="128" stroke="#222" stroke-width="1"/>
  <text class="note" x="447" y="142" text-anchor="middle">64-1518 bytes on the wire (min frame 64 = 18 hdr/trailer + 46 min payload)</text>
  <text class="note" x="447" y="160" text-anchor="middle">Preamble + SFD are PHY sync, not counted in frame size or FCS</text>

  <!-- EtherType note -->
  <text class="note" x="20" y="195">EtherType &#8805; 0x0600: 0x0800 = IPv4, 0x86DD = IPv6, 0x0806 = ARP, 0x8100 = 802.1Q VLAN tag</text>
  <text class="note" x="20" y="215">Jumbo frames carry up to ~9000-byte payloads (non-standard; both ends must agree). FCS detects errors, cannot correct.</text>
</svg>
