<svg xmlns="http://www.w3.org/2000/svg" width="760" height="250" viewBox="0 0 760 250" font-family="sans-serif">
  <style>
    .field { fill:#ffffff; stroke:#000000; stroke-width:1.5; }
    .lbl { font-size:13px; fill:#000000; text-anchor:middle; font-weight:bold; }
    .sz { font-size:11px; fill:#000000; text-anchor:middle; }
    .note { font-size:12px; fill:#000000; }
    .ttl { font-size:16px; fill:#000000; text-anchor:middle; font-weight:bold; }
  </style>
  <text class="ttl" x="380" y="24">Ethernet Frame, Field by Field (left to right)</text>

  <!-- preamble + SFD : shown separate from the frame proper -->
  <rect class="field" x="10"  y="55" width="90"  height="60"/>
  <rect class="field" x="100" y="55" width="45"  height="60"/>

  <!-- the frame proper -->
  <rect class="field" x="145" y="55" width="90"  height="60"/>
  <rect class="field" x="235" y="55" width="90"  height="60"/>
  <rect class="field" x="325" y="55" width="70"  height="60"/>
  <rect class="field" x="395" y="55" width="250" height="60"/>
  <rect class="field" x="645" y="55" width="105" height="60"/>

  <!-- labels -->
  <text class="lbl" x="55"  y="82">Preamble</text>
  <text class="sz"  x="55"  y="100">7 bytes</text>
  <text class="lbl" x="122" y="82">SFD</text>
  <text class="sz"  x="122" y="100">1 byte</text>
  <text class="lbl" x="190" y="82">Dest MAC</text>
  <text class="sz"  x="190" y="100">6 bytes</text>
  <text class="lbl" x="280" y="82">Src MAC</text>
  <text class="sz"  x="280" y="100">6 bytes</text>
  <text class="lbl" x="360" y="82">Type</text>
  <text class="sz"  x="360" y="100">2 bytes</text>
  <text class="lbl" x="520" y="82">Payload (data)</text>
  <text class="sz"  x="520" y="100">46 to 1500 bytes</text>
  <text class="lbl" x="697" y="82">FCS</text>
  <text class="sz"  x="697" y="100">4 bytes (error check)</text>

  <!-- brace marking the bytes covered by the FCS / "the frame" -->
  <line x1="145" y1="125" x2="750" y2="125" stroke="#000000" stroke-width="1"/>
  <line x1="145" y1="125" x2="145" y2="133" stroke="#000000" stroke-width="1"/>
  <line x1="750" y1="125" x2="750" y2="133" stroke="#000000" stroke-width="1"/>
  <text class="note" x="447" y="150" text-anchor="middle">This is "the frame". The FCS at the end is checked against the rest to spot errors.</text>

  <!-- notes -->
  <text class="note" x="20" y="180">Who it is FOR -&gt; Dest MAC.   Who it is FROM -&gt; Src MAC.   What's inside -&gt; Type (e.g. an IP packet).</text>
  <text class="note" x="20" y="205">Preamble + SFD just wake up the receiver's clock; they are not part of the frame and not error-checked.</text>
  <text class="note" x="20" y="230">If the FCS does not match, the frame is thrown away. Ethernet detects errors; it does not fix them.</text>
</svg>
