<svg xmlns="http://www.w3.org/2000/svg" width="360" height="170" viewBox="0 0 360 170">
  <rect width="360" height="170" fill="white"/>
  <g stroke="black" stroke-width="1.5" fill="none">
    <line x1="20" y1="80" x2="345" y2="80"/>
    <polygon points="345,80 337,76 337,84" fill="black"/>
    <polygon points="20,80 28,76 28,84" fill="black"/>
  </g>
  <g stroke="black" stroke-width="1.5">
    <line x1="60" y1="73" x2="60" y2="87"/>
    <line x1="110" y1="73" x2="110" y2="87"/>
    <line x1="160" y1="73" x2="160" y2="87"/>
    <line x1="210" y1="73" x2="210" y2="87"/>
    <line x1="260" y1="73" x2="260" y2="87"/>
    <line x1="310" y1="73" x2="310" y2="87"/>
  </g>
  <g fill="black" font-family="sans-serif" font-size="13" text-anchor="middle">
    <text x="60" y="100">-2</text>
    <text x="110" y="100">-1</text>
    <text x="160" y="100">0</text>
    <text x="210" y="100">1</text>
    <text x="260" y="100">2</text>
    <text x="310" y="100">3</text>
  </g>
  <g stroke="black" stroke-width="1.5" fill="none">
    <path d="M 160 65 q 25 -25 50 0"/>
    <polygon points="210,65 204,58 213,56" fill="black"/>
  </g>
  <g fill="black" font-family="sans-serif" font-size="12" text-anchor="middle">
    <text x="185" y="33">add 1: move right</text>
    <text x="160" y="135">The number line: negatives left, positives right of 0</text>
    <text x="160" y="153">subtracting moves left, adding moves right</text>
  </g>
</svg>
