<svg xmlns="http://www.w3.org/2000/svg" width="340" height="260" viewBox="0 0 340 260">
  <rect width="340" height="260" fill="white"/>
  <g stroke="black" stroke-width="1.5" fill="none">
    <line x1="30" y1="220" x2="320" y2="220"/>
    <line x1="40" y1="20" x2="40" y2="235"/>
    <path d="M 45 190 Q 170 30 305 110"/>
  </g>
  <g stroke="black" stroke-width="0.8" fill="none">
    <line x1="90" y1="220" x2="90" y2="148"/>
    <line x1="120" y1="220" x2="120" y2="120"/>
    <line x1="150" y1="220" x2="150" y2="98"/>
    <line x1="180" y1="220" x2="180" y2="83"/>
    <line x1="210" y1="220" x2="210" y2="76"/>
    <line x1="240" y1="220" x2="240" y2="78"/>
    <line x1="270" y1="220" x2="270" y2="88"/>
  </g>
  <g stroke="black" stroke-width="1" fill="none">
    <line x1="100" y1="220" x2="100" y2="135"/>
    <line x1="100" y1="135" x2="260" y2="135" stroke-dasharray="2,2"/>
    <line x1="260" y1="220" x2="260" y2="135"/>
  </g>
  <g fill="black" font-family="sans-serif" font-size="13">
    <text x="100" y="238">a</text>
    <text x="255" y="238">b</text>
    <text x="280" y="105">y = f(x)</text>
    <text x="120" y="190">area = integral</text>
    <text x="60" y="252">definite integral = signed area under curve</text>
  </g>
</svg>
