<svg xmlns="http://www.w3.org/2000/svg" width="360" height="240" viewBox="0 0 360 240">
  <rect width="360" height="240" fill="white"/>
  <g stroke="black" stroke-width="1.5" fill="none">
    <line x1="45" y1="190" x2="340" y2="190"/>
    <line x1="45" y1="20" x2="45" y2="200"/>
  </g>
  <g stroke="black" stroke-width="1" fill="none" stroke-dasharray="4,3">
    <line x1="45" y1="70" x2="340" y2="70"/>
  </g>
  <g stroke="black" stroke-width="2" fill="none">
    <path d="M 45 190 C 95 70, 130 35, 165 55 S 205 90, 230 75 S 270 62, 300 70 L 340 70"/>
  </g>
  <g stroke="black" stroke-width="1.5" fill="none" stroke-dasharray="6,4">
    <path d="M 45 190 C 110 95, 180 72, 250 70 S 320 70, 340 70"/>
  </g>
  <g stroke="black" stroke-width="1" fill="none" stroke-dasharray="2,3">
    <path d="M 45 190 C 130 145, 230 95, 300 75 S 330 71, 340 70"/>
  </g>
  <g fill="black" font-family="sans-serif" font-size="13">
    <text x="180" y="222">time</text>
    <text x="8" y="120" transform="rotate(-90 14 120)">y(t)</text>
    <text x="290" y="62">steady state</text>
    <text x="150" y="40">underdamped (rings)</text>
    <text x="200" y="120">critical (dashed)</text>
    <text x="170" y="160">overdamped (dotted)</text>
  </g>
</svg>
