<svg xmlns="http://www.w3.org/2000/svg" width="360" height="240" viewBox="0 0 360 240">
  <rect width="360" height="240" fill="white"/>
  <g stroke="black" stroke-width="1.5" fill="none">
    <line x1="40" y1="200" x2="340" y2="200"/>
    <line x1="40" y1="20" x2="40" y2="210"/>
  </g>
  <g stroke="black" stroke-width="1.5" fill="none">
    <line x1="75" y1="60" x2="100" y2="50"/>
    <line x1="140" y1="60" x2="165" y2="55"/>
    <line x1="205" y1="60" x2="230" y2="58"/>
    <line x1="270" y1="60" x2="295" y2="59"/>
    <line x1="70" y1="115" x2="95" y2="100"/>
    <line x1="135" y1="115" x2="160" y2="105"/>
    <line x1="200" y1="115" x2="225" y2="110"/>
    <line x1="265" y1="115" x2="290" y2="112"/>
    <line x1="65" y1="170" x2="90" y2="150"/>
    <line x1="130" y1="170" x2="155" y2="155"/>
    <line x1="195" y1="170" x2="220" y2="160"/>
    <line x1="260" y1="170" x2="285" y2="165"/>
  </g>
  <g stroke="black" stroke-width="2.5" fill="none">
    <path d="M 50 175 C 110 150, 180 100, 250 70 S 320 56, 335 54"/>
  </g>
  <g fill="black" font-family="sans-serif" font-size="13">
    <text x="170" y="228">time</text>
    <text x="8" y="130" transform="rotate(-90 14 130)">value</text>
    <text x="120" y="40">little arrows = the rule (slope at each point)</text>
    <text x="245" y="92">a solution follows the arrows</text>
  </g>
</svg>
