<svg xmlns="http://www.w3.org/2000/svg" width="380" height="270" viewBox="0 0 380 270">
  <rect width="380" height="270" fill="white"/>
  <g stroke="black" stroke-width="1.4" fill="none">
    <line x1="60" y1="60" x2="160" y2="30"/>
    <line x1="60" y1="60" x2="160" y2="120"/>
    <line x1="160" y1="30" x2="270" y2="20"/>
    <line x1="160" y1="30" x2="270" y2="60"/>
    <line x1="160" y1="120" x2="270" y2="100"/>
    <line x1="160" y1="120" x2="270" y2="140"/>
  </g>
  <g stroke="black" stroke-width="1" fill="white">
    <circle cx="60" cy="60" r="6"/>
    <circle cx="160" cy="30" r="6"/>
    <circle cx="160" cy="120" r="6"/>
  </g>
  <g fill="black" font-family="sans-serif" font-size="12">
    <text x="20" y="64">start</text>
    <text x="95" y="32">P(D)=.01</text>
    <text x="95" y="116">P(D')=.99</text>
    <text x="200" y="16">P(+|D)=.95</text>
    <text x="200" y="60">P(-|D)=.05</text>
    <text x="200" y="96">P(+|D')=.10</text>
    <text x="200" y="140">P(-|D')=.90</text>
    <text x="278" y="24">TP</text>
    <text x="278" y="64">FN</text>
    <text x="278" y="104">FP</text>
    <text x="278" y="144">TN</text>
  </g>
  <g fill="black" font-family="sans-serif" font-size="13">
    <text x="30" y="200">Bayes: P(D|+) = P(+|D)P(D) / P(+)</text>
    <text x="30" y="222">P(+) = P(+|D)P(D) + P(+|D')P(D')</text>
    <text x="30" y="244">= .0095 + .099 = .1085  ->  P(D|+) ~ 0.088</text>
  </g>
</svg>
