<svg xmlns="http://www.w3.org/2000/svg" viewBox="0 0 360 260" width="360" height="260">
  <rect x="0" y="0" width="360" height="260" fill="#ffffff"/>
  <!-- Sine -->
  <text x="10" y="30" font-family="Arial, sans-serif" font-size="13">Sine</text>
  <line x1="80" y1="35" x2="340" y2="35" stroke="#000000" stroke-width="1"/>
  <path d="M80 35 Q97 5 114 35 Q131 65 148 35 Q165 5 182 35 Q199 65 216 35 Q233 5 250 35 Q267 65 284 35 Q301 5 318 35" fill="none" stroke="#cc0000" stroke-width="2"/>
  <!-- Square -->
  <text x="10" y="120" font-family="Arial, sans-serif" font-size="13">Square</text>
  <line x1="80" y1="120" x2="340" y2="120" stroke="#000000" stroke-width="1"/>
  <polyline points="80,95 110,95 110,145 150,145 150,95 190,95 190,145 230,145 230,95 270,95 270,145 310,145 310,95 340,95" fill="none" stroke="#0066cc" stroke-width="2"/>
  <!-- Triangle -->
  <text x="10" y="205" font-family="Arial, sans-serif" font-size="13">Triangle</text>
  <line x1="80" y1="205" x2="340" y2="205" stroke="#000000" stroke-width="1"/>
  <polyline points="80,205 110,180 150,230 190,180 230,230 270,180 310,230 340,205" fill="none" stroke="#000000" stroke-width="2"/>
  <!-- caption -->
  <text x="20" y="252" font-family="Arial, sans-serif" font-size="13" fill="#000000">An oscillator makes a repeating wave by itself, with no input signal</text>
</svg>
